<svg id="Grupo_657" data-name="Grupo 657" xmlns="http://www.w3.org/2000/svg" xmlns:xlink="http://www.w3.org/1999/xlink" width="118.457" height="28.697" viewBox="0 0 118.457 28.697">
  <defs>
    <clipPath id="clip-path">
      <rect id="Rectángulo_427" data-name="Rectángulo 427" width="118.457" height="28.697" fill="none"/>
    </clipPath>
    <clipPath id="clip-path-2">
      <rect id="Rectángulo_426" data-name="Rectángulo 426" width="118.457" height="28.697" transform="translate(0 0)" fill="none"/>
    </clipPath>
    <clipPath id="clip-path-3">
      <rect id="Rectángulo_423" data-name="Rectángulo 423" width="0.167" height="0.008" transform="translate(59.375 6.365)" fill="none"/>
    </clipPath>
    <clipPath id="clip-path-4">
      <path id="Trazado_893" data-name="Trazado 893" d="M59.541,6.365h-.167c.055,0,.108,0,.161.008Z" fill="none"/>
    </clipPath>
    <linearGradient id="linear-gradient" x1="-355.541" y1="0.5" x2="-349.553" y2="0.5" gradientUnits="objectBoundingBox">
      <stop offset="0" stop-color="#fff"/>
      <stop offset="1" stop-color="#17100d"/>
    </linearGradient>
    <clipPath id="clip-path-5">
      <rect id="Rectángulo_425" data-name="Rectángulo 425" width="0.169" height="0.008" transform="translate(54.448 28.211)" fill="none"/>
    </clipPath>
    <clipPath id="clip-path-6">
      <path id="Trazado_894" data-name="Trazado 894" d="M54.448,28.218h.169c-.056,0-.108-.007-.163-.007Z" fill="none"/>
    </clipPath>
    <linearGradient id="linear-gradient-2" x1="-322.18" x2="-316.263" xlink:href="#linear-gradient"/>
  </defs>
  <g id="Grupo_640" data-name="Grupo 640" clip-path="url(#clip-path)">
    <g id="Grupo_639" data-name="Grupo 639">
      <g id="Grupo_638" data-name="Grupo 638" clip-path="url(#clip-path-2)">
        <path id="Trazado_886" data-name="Trazado 886" d="M118.457,26.412a1.719,1.719,0,0,1-.137.684,1.731,1.731,0,0,1-1.609,1.066,1.84,1.84,0,0,1-.7-.133,1.673,1.673,0,0,1-.545-.361,1.716,1.716,0,0,1-.355-.553,1.855,1.855,0,0,1-.128-.7,1.735,1.735,0,0,1,.136-.686,1.688,1.688,0,0,1,.369-.552,1.75,1.75,0,0,1,1.239-.506,1.8,1.8,0,0,1,.7.133,1.606,1.606,0,0,1,.9.91,1.926,1.926,0,0,1,.126.7m-.343.027a1.648,1.648,0,0,0-.1-.6,1.351,1.351,0,0,0-.291-.465,1.285,1.285,0,0,0-.442-.3,1.424,1.424,0,0,0-.549-.1,1.462,1.462,0,0,0-.576.115,1.358,1.358,0,0,0-.729.762,1.494,1.494,0,0,0-.1.548,1.652,1.652,0,0,0,.106.6,1.351,1.351,0,0,0,.291.463,1.283,1.283,0,0,0,.438.3,1.433,1.433,0,0,0,.553.1,1.383,1.383,0,0,0,.579-.115,1.313,1.313,0,0,0,.443-.309,1.281,1.281,0,0,0,.283-.453,1.476,1.476,0,0,0,.1-.545m-.587.858a.241.241,0,0,1,0,.031.04.04,0,0,1-.029.022.507.507,0,0,1-.065.011,1.022,1.022,0,0,1-.124.006.8.8,0,0,1-.107-.006.4.4,0,0,1-.072-.015.252.252,0,0,1-.045-.03.2.2,0,0,1-.023-.05l-.1-.327a.569.569,0,0,0-.147-.257.4.4,0,0,0-.263-.073h-.128v.678a.06.06,0,0,1-.034.061.4.4,0,0,1-.155.019.485.485,0,0,1-.165-.019.061.061,0,0,1-.036-.061V25.594a.209.209,0,0,1,.044-.141.161.161,0,0,1,.135-.051h.491a1.36,1.36,0,0,1,.333.034.663.663,0,0,1,.233.109.436.436,0,0,1,.134.176.562.562,0,0,1,.045.23.474.474,0,0,1-.122.348.7.7,0,0,1-.325.172.54.54,0,0,1,.207.125.765.765,0,0,1,.171.269l.119.313a.669.669,0,0,1,.031.119m-.509-1.3a.274.274,0,0,0-.018-.1.178.178,0,0,0-.057-.085.282.282,0,0,0-.111-.057.647.647,0,0,0-.181-.022h-.23v.563h.22a.432.432,0,0,0,.3-.08.3.3,0,0,0,.081-.215" fill="#fff"/>
        <path id="Trazado_887" data-name="Trazado 887" d="M0,28.287V5.8A5.835,5.835,0,0,1,1.559,1.365C2.545.437,4.157.023,6.4.023c.546,0,5.683-.052,6.014,0V4.648H9.453a15.515,15.515,0,0,0-3.462.33,1.634,1.634,0,0,0-.41,1.313V10.68h5.351v1.232A2.739,2.739,0,0,1,8.223,14.7H5.581V28.287Z" fill="#fff"/>
        <path id="Trazado_888" data-name="Trazado 888" d="M13.933.023h2.955a2.791,2.791,0,0,1,1.97.811,2.558,2.558,0,0,1,.821,1.927V28.287H13.933Z" fill="#fff"/>
        <path id="Trazado_889" data-name="Trazado 889" d="M36.688,21.556h4.1a8.938,8.938,0,0,1-3.449,5.252,10.435,10.435,0,0,1-6.4,1.889,9.144,9.144,0,0,1-7.306-3.037q-2.627-2.953-2.627-8.453,0-5.25,2.545-8.209a9.149,9.149,0,0,1,7.3-3.035q4.926,0,7.632,2.955,2.628,3.034,2.627,8.453v.9a1.42,1.42,0,0,1-.081.572h-14.2a5.64,5.64,0,0,0,1.231,3.778,3.881,3.881,0,0,0,3.2,1.31,4.651,4.651,0,0,0,2.381-.572,1.123,1.123,0,0,0,.451-.289l.453-.449a1.768,1.768,0,0,1,.615-.659,2.447,2.447,0,0,1,1.518-.41m-9.849-6.4h8.373a5.342,5.342,0,0,0-1.15-3.283,3.947,3.947,0,0,0-3.037-1.149,4.009,4.009,0,0,0-2.955,1.149,4.7,4.7,0,0,0-1.231,3.283" fill="#fff"/>
        <path id="Trazado_890" data-name="Trazado 890" d="M94.522,6.455v12.8q0,5.829-3.037,7.633A12.764,12.764,0,0,1,84.837,28.7a13.157,13.157,0,0,1-6.443-1.971q-2.913-1.8-2.913-7.468V6.455h5.746V20.408a3.424,3.424,0,0,0,1.149,2.873,4.131,4.131,0,0,0,2.626.9,4.3,4.3,0,0,0,2.666-.9,3.373,3.373,0,0,0,1.191-2.873V9.244a2.77,2.77,0,0,1,.779-1.969,2.651,2.651,0,0,1,2.011-.82Z" fill="#fff"/>
        <path id="Trazado_891" data-name="Trazado 891" d="M94.932,21.064h5.581a3.029,3.029,0,0,0,1.231,2.463,5.836,5.836,0,0,0,3.283.82,5.274,5.274,0,0,0,2.545-.576,1.743,1.743,0,0,0,.985-1.559q0-1.476-3.448-2.214a15.363,15.363,0,0,1-2.216-.495q-4.348-1.063-5.827-2.543a5.035,5.035,0,0,1-1.64-3.939,6.529,6.529,0,0,1,2.379-5.17,10.234,10.234,0,0,1,6.4-1.889,11.179,11.179,0,0,1,6.812,1.889,7.224,7.224,0,0,1,2.545,5.334h-3.53a2.613,2.613,0,0,1-2.381-1.394q-.329-.329-.657-.659a4.421,4.421,0,0,0-2.708-.738,4.872,4.872,0,0,0-2.46.492,1.661,1.661,0,0,0-.741,1.479q0,1.313,4.268,2.215a8.2,8.2,0,0,0,.861.246,3.167,3.167,0,0,0,.7.084,15.175,15.175,0,0,1,5.828,2.461,5.172,5.172,0,0,1,1.56,3.939,6.562,6.562,0,0,1-2.627,5.58q-2.463,1.807-7.388,1.807-4.676,0-6.975-1.889a6.589,6.589,0,0,1-2.381-5.5Z" fill="#fff"/>
        <path id="Trazado_892" data-name="Trazado 892" d="M68.629,6.365,61.4,17.525l-1.994,3.067c1.34,1.806,2.548,3.425,3.474,4.648l5.252-7.631,7.14-11.244Z" fill="#549b1a"/>
        <g id="Grupo_632" data-name="Grupo 632" style="mix-blend-mode: multiply;isolation: isolate">
          <g id="Grupo_631" data-name="Grupo 631">
            <g id="Grupo_630" data-name="Grupo 630" clip-path="url(#clip-path-3)">
              <g id="Grupo_629" data-name="Grupo 629">
                <g id="Grupo_628" data-name="Grupo 628" clip-path="url(#clip-path-4)">
                  <rect id="Rectángulo_422" data-name="Rectángulo 422" width="0.167" height="0.008" transform="translate(59.374 6.365)" fill="url(#linear-gradient)"/>
                </g>
              </g>
            </g>
          </g>
        </g>
        <g id="Grupo_637" data-name="Grupo 637" style="mix-blend-mode: multiply;isolation: isolate">
          <g id="Grupo_636" data-name="Grupo 636">
            <g id="Grupo_635" data-name="Grupo 635" clip-path="url(#clip-path-5)">
              <g id="Grupo_634" data-name="Grupo 634">
                <g id="Grupo_633" data-name="Grupo 633" clip-path="url(#clip-path-6)">
                  <rect id="Rectángulo_424" data-name="Rectángulo 424" width="0.169" height="0.007" transform="translate(54.448 28.211)" fill="url(#linear-gradient-2)"/>
                </g>
              </g>
            </g>
          </g>
        </g>
        <path id="Trazado_895" data-name="Trazado 895" d="M75.275,6.365H68.629L64.85,12.2,61.834,7.818a2.877,2.877,0,0,0-.329-.52v.024a2.5,2.5,0,0,0-1.971-.949l.007-.008H54.448l.006.008a2.5,2.5,0,0,0-2.3,1.445L49.138,12.2,45.361,6.365H38.714l6.939,10.926L38.714,28.218h6.647l3.778-5.838,3.015,4.383a2.5,2.5,0,0,0,2.3,1.448l-.006.007h5.093l-.007-.007a2.5,2.5,0,0,0,2.3-1.448l3.015-4.381,3.778,5.836h6.646L68.337,17.291ZM61.4,17.525,57,24.3l-4.412-6.779-.152-.234.152-.235L57,10.277,61.4,17.056l.152.235Z" fill="#c8242a"/>
      </g>
    </g>
  </g>
</svg>
