<svg xmlns="http://www.w3.org/2000/svg" fill="none" viewBox="0 0 55 18">
    <path fill="#00A650" fill-rule="evenodd"
        d="M4.1.02.72 10.08h5.6L4.1 17.62l8.97-11.31h-5.6L10.82.02H4.1ZM19.43 12.6h-2.67l2.28-10.07h7.6l-.52 2.27H21.2l-.34 1.56h4.8l-.52 2.27h-4.8l-.9 3.96Zm13.13 0c-3.14 0-4.7-1.46-4.7-3.53 0-.17.05-.5.08-.66l1.35-5.88h2.69l-1.34 5.83a2.1 2.1 0 0 0-.04.41c.01.81.66 1.6 1.96 1.6 1.42 0 2.14-.86 2.4-2.01l1.33-5.83h2.68L37.63 8.4c-.55 2.4-1.9 4.2-5.07 4.2Zm13.29 0h-6.89l2.3-10.07h2.7l-1.77 7.8h4.18l-.52 2.26Zm8.63 0H47.6l2.3-10.07h2.69l-1.77 7.8H55l-.52 2.26Z"
        clip-rule="evenodd" />
</svg>
